# xmcd
#
# Track frame offsets: 
#        150
#        23524
#        44037
#        61907
#        85271
#        105783
#
# Disc length: 1649 seconds
#
# Revision: 0
# Processed by: cddbd v1.5.2PL0 Copyright (c) Steve Scherf et al.
# Submitted via: ExactAudioCopy v1.3
#
DISCID=3d066f06
DTITLE=喜多村英梨 - arcadia † paroniria 通常盤
DYEAR=2017
DGENRE=Pop
TTITLE0=arcadia † paroniria
TTITLE1=TiCK TACK
TTITLE2=EDEN
TTITLE3=arcadia † paroniria(Instrumental)
TTITLE4=TiCK TACK(Instrumental)
TTITLE5=EDEN(Instrumental)
EXTD=
EXTT0=
EXTT1=
EXTT2=
EXTT3=
EXTT4=
EXTT5=
PLAYORDER=
